HIERARCHY
ROOT Hips
{
    OFFSET 0.0 0.0 0.0
    CHANNELS 6 Xposition Yposition Zposition Zrotation Xrotation Yrotation
    JOINT LeftHipJoint
    {
        OFFSET 0.1 0.0 0.0
        CHANNELS 3 Zrotation Xrotation Yrotation
        JOINT LeftUpLeg
        {
            OFFSET 131.15667288214672 0.0 0.0
            CHANNELS 3 Zrotation Xrotation Yrotation
            JOINT LeftLeg
            {
                OFFSET 0.0 0.0 -431.6357040338777
                CHANNELS 3 Zrotation Xrotation Yrotation
                JOINT LeftFoot
                {
                    OFFSET 0.0 0.0 -373.3609893927246
                    CHANNELS 3 Zrotation Xrotation Yrotation
                    End Site
                    {
                        OFFSET 0.0 -0.1 0.0
                    }
                }
            }
        }
    }
    JOINT LowerBack
    {
        OFFSET 0.0 0.0 0.1
        CHANNELS 3 Zrotation Xrotation Yrotation
        JOINT Spine
        {
            OFFSET 0.0 0.0 233.3629646094836
            CHANNELS 3 Zrotation Xrotation Yrotation
            JOINT Spine1
            {
                OFFSET 0.0 0.0 249.99653041552367
                CHANNELS 3 Zrotation Xrotation Yrotation
                JOINT LeftShoulder
                {
                    OFFSET 0.1 0.0 0.0
                    CHANNELS 3 Zrotation Xrotation Yrotation
                    JOINT LeftArm
                    {
                        OFFSET 148.579151473534 0.0 0.0
                        CHANNELS 3 Zrotation Xrotation Yrotation
                        JOINT LeftForeArm
                        {
                            OFFSET 277.76412608930184 0.0 0.0
                            CHANNELS 3 Zrotation Xrotation Yrotation
                            JOINT LeftHand
                            {
                                OFFSET 251.01720754059875 0.0 0.0
                                CHANNELS 3 Zrotation Xrotation Yrotation
                                End Site
                                {
                                    OFFSET 0.1 0.0 0.0
                                }
                            }
                        }
                    }
                }
                JOINT Neck
                {
                    OFFSET 0.0 0.0 0.1
                    CHANNELS 3 Zrotation Xrotation Yrotation
                    JOINT Neck1
                    {
                        OFFSET 0.0 0.0 103.01591131624444
                        CHANNELS 3 Zrotation Xrotation Yrotation
                        End Site
                        {
                            OFFSET 0.0 0.0 107.28058569776225
                        }
                    }
                }
                JOINT RightShoulder
                {
                    OFFSET -0.1 0.0 0.0
                    CHANNELS 3 Zrotation Xrotation Yrotation
                    JOINT RightArm
                    {
                        OFFSET -148.579151473534 0.0 0.0
                        CHANNELS 3 Zrotation Xrotation Yrotation
                        JOINT RightForeArm
                        {
                            OFFSET -277.76412608930184 0.0 0.0
                            CHANNELS 3 Zrotation Xrotation Yrotation
                            JOINT RightHand
                            {
                                OFFSET -251.01720754059875 0.0 0.0
                                CHANNELS 3 Zrotation Xrotation Yrotation
                                End Site
                                {
                                    OFFSET -0.1 0.0 0.0
                                }
                            }
                        }
                    }
                }
            }
        }
    }
    JOINT RightHipJoint
    {
        OFFSET -0.1 0.0 0.0
        CHANNELS 3 Zrotation Xrotation Yrotation
        JOINT RightUpLeg
        {
            OFFSET -131.15667288214672 0.0 0.0
            CHANNELS 3 Zrotation Xrotation Yrotation
            JOINT RightLeg
            {
                OFFSET 0.0 0.0 -431.6357040338777
                CHANNELS 3 Zrotation Xrotation Yrotation
                JOINT RightFoot
                {
                    OFFSET 0.0 0.0 -373.3609893927246
                    CHANNELS 3 Zrotation Xrotation Yrotation
                    End Site
                    {
                        OFFSET 0.0 -0.1 0.0
                    }
                }
            }
        }
    }
}
MOTION
Frames: 9
Frame Time: 0.03333333333333333
0.0 0.0 816.8994952090475 30.842583473050226 -25.615174976338057 7.724841983477459 0.0 0.0 0.0 0.4219709608549818 11.462649318497805 -3.3211616470716994 -0.5316182445262586 23.625431633103915 -3.3978543397343057 0.0 0.0 -3.975693351829396e-16 0.0 0.0 0.0 0.6435056471642121 17.30197351932933 -5.11209755926464 -5.879484707798418 -8.94356415524129e-16 3.521651040476766e-16 2.155227684594804e-35 -1.2424041724466862e-17 1.987846675914698e-16 -91.78924322692528 9.535469392797703 56.281001921579154 -102.73394579490031 0.0 -0.0 0.0 0.0 -7.951386703658791e-16 2.155227684594804e-35 -1.2424041724466862e-17 1.987846675914698e-16 -3.594662327031616 4.371229941708261 -7.53172699834706 2.155227684594804e-35 -1.2424041724466862e-17 1.987846675914698e-16 22.75754987187367 -34.28395030907229 -73.20197570655061 143.00531507550215 4.014354275660877e-15 8.050613914709807e-15 0.0 0.0 0.0 0.0 0.0 0.0 0.7840797654348033 20.855026729706157 -9.42413969566745 -1.8065793385255955 13.986561198071412 8.568827685009017 -2.758691436281349e-32 -1.5902773407317584e-15 -1.987846675914698e-15
0.0 0.0 816.8994952090475 30.952724991769088 -25.602450862508274 7.534340494833439 0.0 0.0 -7.951386703658792e-16 0.401482151751499 11.558038988439266 -2.8365317791393796 -0.36647094832975025 23.322850334914143 -3.529943578189851 0.0 0.0 0.0 0.0 0.0 -7.951386703658792e-16 0.6120736521737236 17.44327885472092 -4.953916559700856 -5.665273885177258 -3.1510752382064537e-15 4.4117099367257567e-16 0.0 0.0 0.0 -91.84789442749243 9.543410482020155 56.26307259258876 -102.82323685261632 -4.972141837268831e-15 3.967558175654e-15 0.0 0.0 -7.951386703658792e-16 0.0 0.0 0.0 -3.5293403097088905 4.284668885839504 -7.243117240733894 0.0 0.0 0.0 23.61284957653708 -34.144700605637574 -72.81994797451635 143.01697353126914 1.811792698040709e-14 -1.4063036023034658e-14 -3.1805546814635168e-15 0.0 0.0 0.0 0.0 -7.951386703658792e-16 0.736016706313635 20.774339051917778 -9.122231170619555 -1.8194989563454986 14.421509840623655 8.882291425565104 -2.758691436281349e-32 -1.5902773407317584e-15 -1.987846675914698e-15
0.0 0.0 816.8994952090475 30.982518624818564 -25.575777652302953 7.329243327680936 0.0 -6.212020862233431e-18 0.0 0.3808383281198294 11.743537615631034 -2.3554444805049686 -0.21619111977390448 23.305276469975247 -3.665302693550555 0.0 0.0 0.0 0.0 -6.212020862233431e-18 0.0 0.5742498940833598 17.545605103189132 -4.812274063416993 -5.528997751359266 -1.1013504728162246e-16 -5.318100338814807e-18 0.0 0.0 0.0 -91.82279656567405 9.520523088677571 56.25292093766665 -102.81963240169155 1.0043024649263846e-15 -8.939731607446541e-15 0.0 0.0 7.951386703658792e-16 0.0 0.0 0.0 -3.440627067598222 4.309952206818969 -6.919192323465329 0.0 0.0 0.0 24.474112672661352 -34.0609024112465 -72.45713180823692 143.04592603362047 -6.6715081262036295e-15 1.1184401462218856e-14 0.0 0.0 0.0 0.0 -6.212020862233431e-18 0.0 0.6847467554950488 20.743457801782117 -8.806700892675094 -1.8268132163882023 14.832196435753875 9.140621398861033 2.758691436281349e-33 -3.975693351829396e-16 7.951386703658792e-16
0.0 0.0 816.8994952090475 30.92042574172839 -25.514505348090626 7.102567637812465 0.0 0.0 0.0 0.3540040561717212 11.885370716964406 -1.9189428350979394 -0.09437766791545828 23.396947806987082 -3.8105690095030598 5.517382872562698e-33 -1.5902773407317582e-15 3.9756933518293955e-16 0.0 0.0 0.0 0.5264656109273524 17.540996871167003 -4.549838139377938 -5.395686703784371 7.446651527491144e-16 -1.6391581035706512e-16 5.517382872562698e-33 1.5902773407317584e-15 -3.975693351829396e-16 -91.61995426073524 9.494496034686515 56.305536541166234 -102.96979579401705 -1.0160164274537437e-15 8.938407871281107e-15 -1.5902773407317584e-15 0.0 0.0 5.517382872562698e-33 1.5902773407317584e-15 -3.975693351829396e-16 -3.513787127947655 4.376482250579696 -6.688918409972339 5.517382872562698e-33 1.5902773407317584e-15 -3.975693351829396e-16 25.244906957264185 -34.0233983381173 -72.26366772277176 143.07915713122475 -6.9166910485416484e-15 4.3972116002178905e-15 0.0 0.0 0.0 0.0 0.0 0.0 0.6235719988199643 20.625722544021045 -8.495490816367896 -1.864398541853876 15.44565719613745 9.293480707360745 0.0 0.0 0.0
0.0 0.0 816.8994952090475 30.772016777483056 -25.548486193922447 6.899153076527873 0.0 0.0 0.0 0.33923322379842047 12.06757895507343 -1.5278300318079736 0.03312438157586575 23.52102109696105 -4.039631039399049 0.0 0.0 0.0 0.0 0.0 0.0 0.4957343116946867 17.528692049394756 -4.372477680012032 -5.224647159019951 -7.064105750790216e-16 1.6676129050726876e-16 0.0 0.0 1.987846675914698e-16 -91.62159606257664 9.602655101868766 56.54239676580382 -102.99001285025184 3.960317545172582e-15 4.9779109341686884e-15 0.0 0.0 0.0 0.0 0.0 1.987846675914698e-16 -3.5661605290971194 4.494928779786237 -6.443435155267353 0.0 0.0 1.987846675914698e-16 26.261513458818495 -33.92188028601769 -72.04685898139633 143.062975894339 -3.900562488108369e-15 5.403781917363517e-15 -3.1805546814635168e-15 0.0 0.0 0.0 0.0 0.0 0.587314804503701 20.630342196038352 -8.19591253686783 -1.8580319579194782 15.841609435593098 9.415958811219415 -1.3793457181406746e-32 -1.987846675914698e-15 -7.951386703658792e-16
0.0 0.0 816.8994952090475 30.72210695490134 -25.58218650816879 6.725403837941886 0.0 0.0 7.951386703658792e-16 0.3252556922968293 12.30199816538499 -1.1770648191366482 0.1444985584332904 23.623713699340403 -4.146474567683472 0.0 0.0 3.975693351829396e-16 0.0 0.0 7.951386703658792e-16 0.46636002864210085 17.56049331986317 -4.183776925670513 -5.037428268146702 -3.92935645114974e-16 3.806692607269669e-16 0.0 0.0 0.0 -91.46114167452625 9.747320417406513 56.705164286647324 -103.15679214893912 0.0 -0.0 -4.4139062980501586e-32 -6.361109362927033e-15 -7.951386703658791e-16 0.0 0.0 0.0 -3.743808799026554 4.626009799179768 -6.296018469033605 0.0 0.0 0.0 27.175164190691977 -33.91632658421209 -71.84648907426376 142.9031896576008 1.0553695455506578e-14 3.5411341734278555e-15 -3.1805546814635168e-15 0.0 0.0 0.0 0.0 7.951386703658792e-16 0.5483958950510269 20.54144987707354 -8.000124021347533 -1.897535621939112 16.38280053839711 9.693799377405819 0.0 0.0 3.975693351829396e-16
0.0 0.0 816.8994952090475 30.558351906956517 -25.58306599935982 6.6301234498502435 0.0 0.0 0.0 0.32595157938182023 12.434060417925007 -0.930667194807631 0.24816177685230473 23.75644261253177 -4.212425613254389 3.4483642953516864e-34 -9.93923337957349e-17 3.975693351829396e-16 0.0 0.0 0.0 0.4634390445054064 17.60830850072026 -4.066382998507199 -4.896556361153931 2.676910093296599e-16 2.1041182765260033e-16 0.0 0.0 0.0 -91.2679733188444 9.962872785317868 56.80020508052466 -103.3253947165522 4.989480492107061e-15 -3.9457314589314185e-15 0.0 0.0 -7.951386703658792e-16 0.0 0.0 0.0 -3.8965257331477883 4.714802048325076 -6.123471095348198 0.0 0.0 0.0 27.951638027318342 -34.000275662312745 -71.55663144214408 142.80393851614397 -8.983037908898494e-16 6.409314706962917e-15 -3.1805546814635168e-15 0.0 0.0 0.0 0.0 0.0 0.5362220808804801 20.299870440082838 -7.772909514671204 -1.9076580879836562 16.995353653326887 9.771406356071461 -1.1034765745125397e-32 -1.5902773407317584e-15 -7.951386703658792e-16
0.0 0.0 816.8994952090475 30.365962390891678 -25.582120763661205 6.573683951472595 0.0 0.0 0.0 0.33083944992660724 12.589492171398296 -0.7625429658746078 0.32415285312757197 23.765842084552478 -4.037186749725343 0.0 0.0 -3.975693351829396e-16 0.0 0.0 0.0 0.4665280289399061 17.682380923428227 -3.901662406556018 -4.762249036497659 7.468510172581688e-16 -1.6790059113493709e-16 2.758691436281349e-33 1.5902773407317584e-15 -1.987846675914698e-16 -91.03649137126764 10.077336909267984 56.92175357387903 -103.50599455437866 -4.995692887614745e-15 3.9378629864119726e-15 1.5902773407317584e-15 0.0 0.0 2.758691436281349e-33 1.5902773407317584e-15 -1.987846675914698e-16 -4.247627540061799 4.940481735114961 -5.930930642813654 2.758691436281349e-33 1.5902773407317584e-15 -1.987846675914698e-16 28.581240261407903 -33.99880023064106 -71.34839369282099 142.827242132243 3.956754821336121e-15 1.3305480143389478e-15 -3.1805546814635168e-15 0.0 0.0 0.0 0.0 0.0 0.5317422213075891 20.10605100040678 -7.551467423511658 -1.8967487949767448 17.49915207888753 9.66589894486408 0.0 0.0 0.0
0.0 0.0 816.8994952090475 30.147732119199134 -25.57144081376142 6.559914430261122 0.0 1.2424041724466862e-17 0.0 0.3447417028825717 12.797425913582897 -0.692030433971074 0.3735618910110205 23.842792957871552 -3.8406335702434986 0.0 0.0 0.0 0.0 1.2424041724466862e-17 0.0 0.48108855801934963 17.78441890271146 -3.7416549835488015 -4.634330529204736 -2.143224953461904e-15 1.1222340198736673e-16 0.0 0.0 0.0 -90.68122653365482 10.087617825526655 56.919246146444934 -103.9487748886683 1.0923410652762192e-15 -8.92940175215267e-15 1.5902773407317584e-15 0.0 0.0 0.0 0.0 0.0 -4.59148439642055 5.16028840519643 -5.701289751053149 0.0 0.0 0.0 29.24077573327214 -34.023279853565136 -71.1269137465631 142.91551321241647 -1.841936794063202e-14 5.312591236027289e-16 -3.1805546814635168e-15 0.0 0.0 0.0 1.2424041724466862e-17 0.0 0.5382229439653943 19.876466160291532 -7.397837787135507 -1.8793250080266513 17.884484993390213 9.555202189881967 0.0 0.0 0.0
